<svg xmlns="http://www.w3.org/2000/svg" width="48" height="48"><path fill="#fff" d="M40.634 8.311a39.581 39.581 0 0 0-9.77-3.03.148.148 0 0 0-.157.074c-.422.75-.89 1.73-1.217 2.5a36.543 36.543 0 0 0-10.973 0 25.26 25.26 0 0 0-1.236-2.5.154.154 0 0 0-.157-.074 39.472 39.472 0 0 0-9.77 3.03.14.14 0 0 0-.064.056C1.067 17.663-.638 26.73.198 35.687a.165.165 0 0 0 .063.113c4.105 3.015 8.082 4.845 11.986 6.058a.155.155 0 0 0 .168-.055 28.448 28.448 0 0 0 2.452-3.988.152.152 0 0 0-.083-.212 26.217 26.217 0 0 1-3.745-1.784.154.154 0 0 1-.015-.256c.252-.188.504-.384.744-.583a.149.149 0 0 1 .155-.02c7.856 3.586 16.36 3.586 24.123 0a.148.148 0 0 1 .157.019c.24.198.492.396.745.584.087.065.082.2-.013.256A24.603 24.603 0 0 1 33.19 37.6a.153.153 0 0 0-.081.214 31.937 31.937 0 0 0 2.45 3.986.152.152 0 0 0 .168.057c3.922-1.213 7.9-3.043 12.005-6.058a.154.154 0 0 0 .062-.11c1.001-10.355-1.676-19.349-7.097-27.322a.122.122 0 0 0-.062-.057ZM16.04 30.234c-2.365 0-4.314-2.171-4.314-4.838 0-2.666 1.911-4.838 4.314-4.838 2.422 0 4.352 2.19 4.314 4.838 0 2.667-1.911 4.838-4.314 4.838Zm15.95 0c-2.365 0-4.314-2.171-4.314-4.838 0-2.666 1.91-4.838 4.314-4.838 2.421 0 4.351 2.19 4.313 4.838 0 2.667-1.892 4.838-4.313 4.838ZM-128.47-1.455l3.538-3.538v-.015l3.521 3.538c1.018 1.017 2.262 1.47 3.49 1.47 2.569 0 5.04-2.003 5.04-5.008l3.521 3.538c1.018 1.017 2.262 1.47 3.49 1.47 2.569 0 5.04-2.003 5.04-5.008h-3.022l-3.52-3.522a4.908 4.908 0 0 0-3.506-1.47c-2.57 0-5.025 1.987-5.025 4.992l-3.52-3.522A4.908 4.908 0 0 0-122.93-10c-2.57 0-5.025 1.987-5.025 4.992l-9.046.015c0 3.022 2.504 4.976 5.072 4.976a4.845 4.845 0 0 0 3.458-1.438Z"/><path fill="#ff004d" d="m22.677 10.69 3.184-3.183v-.015l3.17 3.185c.915.916 2.035 1.323 3.14 1.323 2.312 0 4.536-1.802 4.536-4.508l3.17 3.185c.915.916 2.035 1.323 3.14 1.323 2.312 0 4.536-1.802 4.536-4.508h-2.72l-3.169-3.169A4.418 4.418 0 0 0 38.51 3c-2.312 0-4.521 1.788-4.521 4.492l-3.17-3.169A4.418 4.418 0 0 0 27.663 3c-2.311 0-4.521 1.788-4.521 4.492L15 7.507c0 2.719 2.253 4.478 4.565 4.478a4.36 4.36 0 0 0 3.112-1.294Z"/></svg>