<svg aria-label="Drip logo" height="39.83402489626556" viewBox="0 0 1446 384" width="150" xmlns="http://www.w3.org/2000/svg"><g fill="none" fill-rule="evenodd" id="Brand" stroke="none" stroke-width="1"><g fill="#FFFFFF" fill-rule="nonzero" id="dark-mode" transform="translate(-77, -678)"><g id="Drip-Logo-White-Copy" transform="translate(77, 678)"><g id="q" transform="translate(207, 192) rotate(-180) translate(-207, -192)"><path d="M206.999955,0 C326.051743,0 414,82.4769874 414,196.016736 L414,326.194638 C414,384 414,384 371.044736,384 L214.346843,384 C81.7810705,384 5.34159036e-15,310.09205 5.34159036e-15,196.016736 C5.34159036e-15,82.4769874 87.9481676,0 206.999955,0 Z M125.664543,204.880169 C97.6131716,204.880169 76.8485845,224.367764 76.8485845,251.135828 C76.8485845,278.068116 97.6131716,297.555711 125.664543,297.555711 C153.770705,297.555711 174.535292,278.068116 174.535292,251.135828 C174.535292,224.367764 153.770705,204.880169 125.664543,204.880169 Z" id="Shape"></path></g><path d="M496.770068,383 L793.952414,383 C831.853293,383 837.330299,354.110855 814.272101,328.285714 L754.517963,261.315432 C789.680339,239.101429 814.984105,200.856146 814.984105,148.877575 C814.984105,60.5140033 764.212261,0 620.933783,0 L496.770059,0 C461.169521,0 442,19.15 442,54.7142857 L442,328.285714 C442,363.85 461.169521,383 496.770059,383 L496.770068,383 Z M665.242766,178.532716 C637.200497,178.532716 616.442648,159.054427 616.442648,132.135 C616.442648,105.379718 637.200497,85.9014286 665.242766,85.9014286 C693.339808,85.9014286 714.097657,105.379718 714.097657,132.135 C714.097657,159.054427 693.339808,178.532716 665.242766,178.532716 Z" id="Shape"></path><path d="M903.682779,383 L975.317221,383 C1010.86103,383 1030,363.85 1030,328.285714 L1030,54.7142857 C1030,19.15 1010.86103,0 975.317221,0 L903.682779,0 C868.138973,0 849,19.15 849,54.7142857 L849,328.285714 C849,363.85 868.138973,383 903.682779,383 Z" id="Path"></path><path d="M1446,156.865855 C1446,63.7421429 1395.34949,0 1252.4134,0 L1129.63918,0 C1094.12371,0 1075,19.15 1075,54.7142857 L1075,328.285714 C1075,363.85 1094.12371,383 1129.63918,383 L1201.21649,383 C1236.73196,383 1255.85567,363.85 1255.85567,328.285714 L1255.85567,313.283058 C1396.1636,312.270841 1446,249.239985 1446,156.865855 Z M1296.6165,178.806287 C1268.64124,178.806287 1247.933,159.327998 1247.933,132.408571 C1247.933,105.653289 1268.64124,86.175 1296.6165,86.175 C1324.6464,86.175 1345.35464,105.653289 1345.35464,132.408571 C1345.35464,159.327998 1324.6464,178.806287 1296.6165,178.806287 Z" id="Shape"></path></g></g></g></svg>