<svg width="4098" height="566" viewBox="0 0 4098 566" fill="none" xmlns="http://www.w3.org/2000/svg">
<g clip-path="url(#clip0_4587_460)">
<path d="M2351.17 317.488C2323.04 263.577 2307.03 225.051 2285.74 171.141H2282.73C2287.31 228.93 2289.57 267.455 2289.57 325.181V552.394H2190.68V13.2227H2301L2404.48 218.122C2432.6 273.559 2449.37 309.796 2472.16 363.707C2495.02 309.796 2511.72 273.559 2539.85 218.122L2643.32 13.2227H2753.64V552.458H2654.75V325.244C2654.75 267.455 2657.01 228.93 2661.59 171.204H2658.58C2637.29 225.115 2621.28 263.641 2593.15 317.552L2472.16 552.522L2351.17 317.552V317.488Z" fill="white"/>
<path d="M3235.16 436.88C3213.13 506.175 3148.45 563.964 3045.73 563.964C2919.47 563.964 2840.29 471.528 2840.29 352.135C2840.29 232.743 2921.66 140.307 3043.41 140.307C3143.81 140.307 3204.71 194.217 3229.83 274.321C3238.93 303.565 3242.76 337.513 3242.76 371.398V386.783H2938.43C2941.44 436.88 2977.23 490.791 3045.67 490.791C3097.41 490.791 3124.03 461.546 3133.13 436.88H3235.1H3235.16ZM2938.49 313.61H3144.69C3142.43 259.699 3106.64 213.48 3043.47 213.48C2980.31 213.48 2944.58 259.699 2938.49 313.61Z" fill="white"/>
<path d="M3636.95 475.405V552.457H3286.96V475.405L3508.36 228.929H3294.56V151.877H3629.29V228.929L3407.9 475.405H3636.88H3636.95Z" fill="white"/>
<path d="M3891.05 563.964C3765.54 563.964 3684.1 471.528 3684.1 352.135C3684.1 232.743 3765.54 140.307 3891.05 140.307C4016.56 140.307 4098 232.743 4098 352.135C4098 471.528 4016.63 563.964 3891.05 563.964ZM3891.05 486.976C3970.92 486.976 4003.63 417.68 4003.63 352.199C4003.63 286.718 3970.92 217.422 3891.05 217.422C3811.18 217.422 3778.47 286.781 3778.47 352.199C3778.47 417.617 3811.18 486.976 3891.05 486.976Z" fill="white"/>
<path d="M476.814 483.672L674.597 283.413V282.523L871.438 482.782C928.324 540.38 997.893 566 1066.52 566C1210.12 566 1348.25 452.647 1348.25 282.523L1545.09 482.782C1601.98 540.38 1671.55 566 1740.18 566C1883.77 566 2021.91 452.647 2021.91 282.523H1853.01L1656.17 83.2185C1599.28 25.6204 1528.83 0 1460.2 0C1316.61 0 1179.35 112.463 1179.35 282.523L982.51 83.2185C925.624 25.6204 855.176 0 786.548 0C642.952 0 505.696 112.463 505.696 282.523L0 283.413C0 454.428 139.955 565.046 283.552 565.046C352.179 565.046 421.749 539.426 476.814 483.672Z" fill="white"/>
</g>
<defs>
<clipPath id="clip0_4587_460">
<rect width="4098" height="566" fill="white"/>
</clipPath>
</defs>
</svg>
